0
SECTION
2
HEADER
9
$INSUNITS
70
4
9
$ACADVER
1
AC1014
9
$HANDSEED
5
FFFF
0
ENDSEC
0
SECTION
2
TABLES
0
TABLE
2
VPORT
5
8
100
AcDbSymbolTable
0
ENDTAB
0
TABLE
2
LTYPE
5
5
100
AcDbSymbolTable
0
LTYPE
5
14
100
AcDbSymbolTableRecord
100
AcDbLinetypeTableRecord
2
BYBLOCK
70
0
0
LTYPE
5
15
100
AcDbSymbolTableRecord
100
AcDbLinetypeTableRecord
2
BYLAYER
70
0
0
LTYPE
5
16
100
AcDbSymbolTableRecord
100
AcDbLinetypeTableRecord
2
DASHED
70
0
3
Dashed __ __ __ __ __ __ __ __ __ __ __ __ __ _
72
65
73
2
40
0.75
49
0.5
74
0
49
-0.25
74
0
0
ENDTAB
0
TABLE
2
LAYER
5
2
100
AcDbSymbolTable
70
2
0
LAYER
5
50
100
AcDbSymbolTableRecord
100
AcDbLayerTableRecord
2
0
70
0
62
7
6
CONTINUOUS
0
ENDTAB
0
TABLE
2
STYLE
5
3
100
AcDbSymbolTable
70
1
0
STYLE
5
11
100
AcDbSymbolTableRecord
100
AcDbTextStyleTableRecord
2
STANDARD
70
0
0
ENDTAB
0
TABLE
2
VIEW
5
6
100
AcDbSymbolTable
70
0
0
ENDTAB
0
TABLE
2
UCS
5
7
100
AcDbSymbolTable
70
0
0
ENDTAB
0
TABLE
2
APPID
5
9
100
AcDbSymbolTable
70
2
0
APPID
5
12
100
AcDbSymbolTableRecord
100
AcDbRegAppTableRecord
2
ACAD
70
0
0
ENDTAB
0
TABLE
2
DIMSTYLE
5
A
100
AcDbSymbolTable
70
1
0
ENDTAB
0
TABLE
2
BLOCK_RECORD
5
1
100
AcDbSymbolTable
70
1
0
BLOCK_RECORD
5
1F
100
AcDbSymbolTableRecord
100
AcDbBlockTableRecord
2
*MODEL_SPACE
0
BLOCK_RECORD
5
1B
100
AcDbSymbolTableRecord
100
AcDbBlockTableRecord
2
*PAPER_SPACE
0
ENDTAB
0
ENDSEC
0
SECTION
2
BLOCKS
0
BLOCK
5
20
100
AcDbEntity
100
AcDbBlockBegin
2
*MODEL_SPACE
0
ENDBLK
5
21
100
AcDbEntity
100
AcDbBlockEnd
0
BLOCK
5
1C
100
AcDbEntity
100
AcDbBlockBegin
2
*PAPER_SPACE
0
ENDBLK
5
1D
100
AcDbEntity
100
AcDbBlockEnd
0
ENDSEC
0
SECTION
2
ENTITIES
0
LWPOLYLINE
5
100
100
AcDbEntity
8
0
100
AcDbPolyline
90
4
70
1
43
0.0
10
344.49999989569233
20
-111.9994996637628
10
674.49999989569233
20
-111.9994996637628
10
674.49999989569233
20
338.00050033623722
10
344.49999989569233
20
338.00050033623722
0
LWPOLYLINE
5
101
100
AcDbEntity
8
0
100
AcDbPolyline
90
4
70
1
43
0.0
10
425.99999989569244
20
100.00050033623721
10
425.99999989569244
20
298.00050033623722
10
592.99999989569233
20
298.00050033623722
10
592.99999989569233
20
100.00050033623722
0
LWPOLYLINE
5
102
100
AcDbEntity
8
0
100
AcDbPolyline
90
10
70
1
43
0.0
10
70.000000000000568
20
-57.868076351386946
10
70.000000000000568
20
-77.868076351386946
10
300.00000000000051
20
-77.868076351386946
10
300.00000000000051
20
-57.868076351386946
10
340.00000000000057
20
-57.868076351386946
10
340.00000000000063
20
25.527237292463766
42
-0.78914338828052677
10
278.8993569198326
20
30.131923648613057
10
30.000000000000568
20
30.131923648613057
10
30.000000000000568
20
-18.263389995237766
42
-1.6397817236727052
10
69.604686356149827
20
-57.868076351386946
0
CIRCLE
5
103
100
AcDbEntity
8
0
100
AcDbCircle
10
280.79999999999183
20
111.39999999999999
30
0
40
9.0000000000000018
210
0
220
-0
230
1
0
CIRCLE
5
104
100
AcDbEntity
8
0
100
AcDbCircle
10
7.6406649201000221
20
111.39999999999999
30
0
40
9.0000000000000018
210
0
220
-0
230
1
0
LWPOLYLINE
5
105
100
AcDbEntity
8
0
100
AcDbPolyline
90
22
70
1
43
0.0
10
340.50000000000011
20
109.99999999999999
10
310.50000000000006
20
139.99999999999997
10
296.23664471314106
20
139.99999999999997
42
0.25264557631995488
10
265.36335528684259
20
140.00000000000003
10
23.077309633249286
20
139.99999999999997
42
0.25264557631995377
10
-7.7959797930490824
20
140.00000000000009
10
-28.79999999999999
20
139.99999999999997
10
-58.79999999999999
20
109.99999999999999
10
-58.79999999999999
20
31.999999999999975
10
-15.80000000000819
20
31.999999999999975
10
-15.80000000000819
20
86.999999999999972
10
-13.827683875277756
20
86.999999999999972
42
0.3772996273352861
10
29.109013715477801
20
86.999999999999972
10
132.19999999999183
20
86.999999999999972
10
132.19999999999183
20
31.999999999999975
10
157.20000000000002
20
31.999999999999975
10
157.1999999999918
20
86.999999999999972
10
259.33165120461405
20
86.999999999999972
42
0.3772996273352861
10
302.2683487953696
20
86.999999999999972
10
305.1999999999918
20
86.999999999999972
10
305.20000000000005
20
31.999999999999975
10
340.50000000000011
20
31.999999999999975
0
LWPOLYLINE
5
106
100
AcDbEntity
8
0
100
AcDbPolyline
90
14
70
1
43
0.0
10
42.000416391500366
20
176.13192364861305
10
42.000416391500401
20
257.13192364861311
10
10.000000000000604
20
257.13192364861311
10
10.000000000000568
20
237.13192364861311
10
9.6046863561497862
20
237.13192364861305
42
-1.6397817236727052
10
-29.999999999999439
20
197.52723729246384
10
-29.999999999999361
20
149.13192364861305
10
218.89935691983266
20
149.13192364861305
42
-0.78914338828052655
10
280.00000000000063
20
153.7366100047623
10
280.00000000000057
20
237.13192364861303
10
240.00000000000057
20
237.13192364861303
10
240.00000000000057
20
257.13192364861305
10
209.00041639150032
20
257.13192364861305
10
209.00041639150032
20
176.13192364861303
0
CIRCLE
5
107
100
AcDbEntity
8
0
100
AcDbCircle
10
280.79999999999188
20
300.39999999999998
30
0
40
9.0000000000000018
210
0
220
-0
230
1
0
CIRCLE
5
108
100
AcDbEntity
8
0
100
AcDbCircle
10
7.6406649201000754
20
300.39999999999998
30
0
40
9.0000000000000018
210
0
220
-0
230
1
0
LWPOLYLINE
5
109
100
AcDbEntity
8
0
100
AcDbPolyline
90
22
70
1
43
0.0
10
340.50000000000017
20
299
10
310.50000000000011
20
329
10
296.23664471314112
20
329
42
0.25264557631995477
10
265.36335528684265
20
329.00000000000006
10
23.07730963324936
20
329
42
0.25264557631995405
10
-7.7959797930490291
20
329.00000000000006
10
-28.799999999999901
20
329
10
-58.799999999999898
20
299
10
-58.799999999999898
20
220.99999999999997
10
-15.800000000008172
20
220.99999999999997
10
-15.800000000008172
20
276
10
-13.827683875277703
20
276
42
0.37729962733528588
10
29.109013715477854
20
275.99999999999994
10
132.19999999999189
20
276
10
132.19999999999189
20
220.99999999999997
10
157.20000000000007
20
220.99999999999997
10
157.19999999999186
20
276
10
259.3316512046141
20
276
42
0.3772996273352861
10
302.26834879536966
20
276
10
305.19999999999186
20
276
10
305.2000000000001
20
220.99999999999997
10
340.50000000000017
20
220.99999999999997
0
ENDSEC
0
SECTION
2
OBJECTS
0
DICTIONARY
5
C
100
AcDbDictionary
3
ACAD_GROUP
350
D
3
ACAD_MLINESTYLE
350
17
0
DICTIONARY
5
D
100
AcDbDictionary
0
DICTIONARY
5
1A
330
C
100
AcDbDictionary
0
DICTIONARY
5
17
100
AcDbDictionary
0
ENDSEC
0
EOF
